<?xml version="1.0" encoding="UTF-8" standalone="no"?>


<!-- Uploaded to: SVG Repo, www.svgrepo.com, Generator: SVG Repo Mixer Tools -->
<svg 
   xmlns:dc="http://purl.org/dc/elements/1.1/"
   xmlns:cc="http://creativecommons.org/ns#"
   xmlns:rdf="http://www.w3.org/1999/02/22-rdf-syntax-ns#"
   xmlns:svg="http://www.w3.org/2000/svg"
   xmlns="http://www.w3.org/2000/svg"
   xmlns:sodipodi="http://sodipodi.sourceforge.net/DTD/sodipodi-0.dtd"
   xmlns:inkscape="http://www.inkscape.org/namespaces/inkscape"
   width="30"
   height="30"
   viewBox="0 0 30 30"
   version="1.1"
   id="svg822"
   inkscape:version="0.92.4 (f8dce91, 2019-08-02)"
   sodipodi:docname="info.svg">
  <defs
     id="defs816" />
  <sodipodi:namedview
     id="base"
     pagecolor="#ffffff"
     bordercolor="#666666"
     borderopacity="1.0"
     inkscape:pageopacity="0.0"
     inkscape:pageshadow="2"
     inkscape:zoom="17.833333"
     inkscape:cx="5.4780957"
     inkscape:cy="15.346645"
     inkscape:document-units="px"
     inkscape:current-layer="layer1"
     showgrid="true"
     units="px"
     inkscape:window-width="1366"
     inkscape:window-height="713"
     inkscape:window-x="0"
     inkscape:window-y="0"
     inkscape:window-maximized="1"
     inkscape:lockguides="true">
    <inkscape:grid
       type="xygrid"
       id="grid816" />
  </sodipodi:namedview>
  <metadata
     id="metadata819">
    <rdf:RDF>
      <cc:Work
         rdf:about="">
        <dc:format>image/svg+xml</dc:format>
        <dc:type
           rdf:resource="http://purl.org/dc/dcmitype/StillImage" />
        <dc:title />
      </cc:Work>
    </rdf:RDF>
  </metadata>
  <g
     inkscape:label="Layer 1"
     inkscape:groupmode="layer"
     id="layer1"
     transform="translate(0,-289.0625)">
    <path
       style="opacity:1;fill:#000000;fill-opacity:1;stroke:none;stroke-width:2;stroke-miterlimit:4;stroke-dasharray:none;stroke-opacity:1"
       d="M 15 3 A 12 12 0 0 0 3 15 A 12 12 0 0 0 15 27 A 12 12 0 0 0 27 15 A 12 12 0 0 0 15 3 z M 16.037109 7 C 16.524352 7 16.919776 7.1438818 17.222656 7.4335938 C 17.525537 7.7233057 17.675781 8.0996415 17.675781 8.5605469 C 17.675781 9.126802 17.479046 9.6005289 17.083984 9.9824219 C 16.702091 10.351146 16.222002 10.535156 15.642578 10.535156 C 15.155335 10.535156 14.759912 10.391274 14.457031 10.101562 C 14.154151 9.7986818 14.001953 9.4159835 14.001953 8.9550781 C 14.001953 8.388823 14.194279 7.9214586 14.576172 7.5527344 C 14.971234 7.1840101 15.457686 7 16.037109 7 z M 13.785156 12.511719 L 16.847656 12.511719 L 15.384766 23 L 12.324219 23 L 13.785156 12.511719 z "
       transform="translate(0,289.0625)"
       id="path1199" />
  </g>
</svg>